# xmcd
#
# Track frame offsets: 
#        150
#        15266
#        38872
#        56892
#        75374
#        91434
#        112209
#        133973
#        155449
#        173054
#
# Disc length: 2453 seconds
#
# Revision: 0
# Processed by: cddbd v1.5.2PL0 Copyright (c) Steve Scherf et al.
# Submitted via: ExactAudioCopy v0.99pb5
#
DISCID=7c09930a
DTITLE=Canned Heat and John Lee Hooker - Hooker 'N Heat - CD 1
DYEAR=1970
DGENRE=Blues
TTITLE0=Messin' with the Hook
TTITLE1=The Feelin' Is Gone
TTITLE2=Sen Me Your Pillow
TTITLE3=Sittin' Here Thinkin'
TTITLE4=Meet Me in the Bottom
TTITLE5=Alimonia Blues
TTITLE6=Driftin'Blues
TTITLE7=You Talk Too Much
TTITLE8=Burnin'Hell
TTITLE9=Bottle Up And Go
EXTD=
EXTT0=
EXTT1=
EXTT2=
EXTT3=
EXTT4=
EXTT5=
EXTT6=
EXTT7=
EXTT8=
EXTT9=
PLAYORDER=
